<svg xmlns="http://www.w3.org/2000/svg" viewBox="0 0 400 300" fill="none"><defs><filter id="glow"><feGaussianBlur stdDeviation="4" result="blur"/><feMerge><feMergeNode in="blur"/><feMergeNode in="SourceGraphic"/></feMerge></filter></defs>
    <circle cx="130" cy="110" r="45" stroke="white" stroke-width="1.5" opacity="0.25"/>
    <circle cx="130" cy="100" r="25" fill="white" opacity="0.15"/>
    <circle cx="122" cy="95" r="3" fill="white" opacity="0.4"/>
    <circle cx="138" cy="95" r="3" fill="white" opacity="0.4"/>
    <path d="M125 107 Q130 112 135 107" stroke="white" stroke-width="1" opacity="0.3" fill="none"/>
    <circle cx="270" cy="110" r="45" stroke="white" stroke-width="1.5" opacity="0.25"/>
    <circle cx="270" cy="100" r="25" fill="white" opacity="0.15"/>
    <circle cx="262" cy="95" r="3" fill="white" opacity="0.4"/>
    <circle cx="278" cy="95" r="3" fill="white" opacity="0.4"/>
    <path d="M265 107 Q270 112 275 107" stroke="white" stroke-width="1" opacity="0.3" fill="none"/>
    <path d="M180 90 C195 75 205 75 220 90" stroke="white" stroke-width="1.5" opacity="0.35" fill="none"/>
    <polygon points="220,90 215,82 222,85" fill="white" opacity="0.35"/>
    <path d="M220 130 C205 145 195 145 180 130" stroke="white" stroke-width="1.5" opacity="0.35" fill="none"/>
    <polygon points="180,130 185,138 178,135" fill="white" opacity="0.35"/>
    <rect x="120" y="210" width="160" height="40" rx="8" fill="white" opacity="0.1"/>
    <text x="200" y="235" text-anchor="middle" fill="white" font-size="12" opacity="0.35" font-family="Arial">SWAP FACES</text>
  </svg>