<svg xmlns="http://www.w3.org/2000/svg" viewBox="0 0 400 300" fill="none"><defs><filter id="glow"><feGaussianBlur stdDeviation="4" result="blur"/><feMerge><feMergeNode in="blur"/><feMergeNode in="SourceGraphic"/></feMerge></filter></defs>
    <rect x="80" y="50" width="240" height="180" rx="10" stroke="white" stroke-width="1.5" opacity="0.3"/>
    <rect x="80" y="50" width="240" height="35" rx="10 10 0 0" fill="white" opacity="0.1"/>
    <line x1="130" y1="42" x2="130" y2="58" stroke="white" stroke-width="2" opacity="0.35"/>
    <line x1="270" y1="42" x2="270" y2="58" stroke="white" stroke-width="2" opacity="0.35"/>
    <rect x="95" y="100" width="30" height="25" rx="4" stroke="white" stroke-width="0.5" opacity="0.15"/>
    <rect x="135" y="100" width="30" height="25" rx="4" stroke="white" stroke-width="0.5" opacity="0.15"/>
    <rect x="175" y="100" width="30" height="25" rx="4" fill="white" opacity="0.15"/>
    <rect x="215" y="100" width="30" height="25" rx="4" stroke="white" stroke-width="0.5" opacity="0.15"/>
    <rect x="255" y="100" width="30" height="25" rx="4" stroke="white" stroke-width="0.5" opacity="0.15"/>
    <rect x="295" y="100" width="30" height="25" rx="4" stroke="white" stroke-width="0.5" opacity="0.15"/>
    <rect x="95" y="135" width="30" height="25" rx="4" stroke="white" stroke-width="0.5" opacity="0.15"/>
    <rect x="135" y="135" width="30" height="25" rx="4" stroke="white" stroke-width="0.5" opacity="0.15"/>
    <rect x="175" y="135" width="30" height="25" rx="4" stroke="white" stroke-width="0.5" opacity="0.15"/>
    <rect x="215" y="135" width="30" height="25" rx="4" stroke="white" stroke-width="0.5" opacity="0.15"/>
    <rect x="255" y="135" width="30" height="25" rx="4" fill="white" opacity="0.12"/>
    <rect x="295" y="135" width="30" height="25" rx="4" stroke="white" stroke-width="0.5" opacity="0.15"/>
    <rect x="95" y="170" width="30" height="25" rx="4" stroke="white" stroke-width="0.5" opacity="0.15"/>
    <rect x="135" y="170" width="30" height="25" rx="4" fill="white" opacity="0.1"/>
    <rect x="175" y="170" width="30" height="25" rx="4" stroke="white" stroke-width="0.5" opacity="0.15"/>
    <rect x="215" y="170" width="30" height="25" rx="4" stroke="white" stroke-width="0.5" opacity="0.15"/>
    <rect x="255" y="170" width="30" height="25" rx="4" stroke="white" stroke-width="0.5" opacity="0.15"/>
    <rect x="295" y="170" width="30" height="25" rx="4" stroke="white" stroke-width="0.5" opacity="0.15"/>
    <circle cx="290" cy="220" r="35" stroke="white" stroke-width="1.5" opacity="0.3" fill="white" fill-opacity="0.05"/>
    <line x1="290" y1="220" x2="290" y2="200" stroke="white" stroke-width="2" opacity="0.5"/>
    <line x1="290" y1="220" x2="310" y2="230" stroke="white" stroke-width="1.5" opacity="0.4"/>
    <circle cx="290" cy="220" r="3" fill="white" opacity="0.5"/>
  </svg>