<svg xmlns="http://www.w3.org/2000/svg" viewBox="0 0 400 300" fill="none"><defs><filter id="glow"><feGaussianBlur stdDeviation="4" result="blur"/><feMerge><feMergeNode in="blur"/><feMergeNode in="SourceGraphic"/></feMerge></filter></defs>
    <circle cx="200" cy="120" r="60" stroke="white" stroke-width="1.5" opacity="0.3"/>
    <ellipse cx="200" cy="120" rx="30" ry="60" stroke="white" stroke-width="1" opacity="0.2"/>
    <line x1="140" y1="100" x2="260" y2="100" stroke="white" stroke-width="1" opacity="0.15"/>
    <line x1="140" y1="140" x2="260" y2="140" stroke="white" stroke-width="1" opacity="0.15"/>
    <line x1="200" y1="60" x2="200" y2="180" stroke="white" stroke-width="1" opacity="0.15"/>
    <circle cx="80" cy="80" r="20" stroke="white" stroke-width="1" opacity="0.2" stroke-dasharray="3 3"/>
    <text x="80" y="84" text-anchor="middle" fill="white" font-size="10" opacity="0.4" font-family="Arial">EN</text>
    <circle cx="320" cy="80" r="20" stroke="white" stroke-width="1" opacity="0.2" stroke-dasharray="3 3"/>
    <text x="320" y="84" text-anchor="middle" fill="white" font-size="10" opacity="0.4" font-family="Arial">ES</text>
    <circle cx="80" cy="170" r="20" stroke="white" stroke-width="1" opacity="0.2" stroke-dasharray="3 3"/>
    <text x="80" y="174" text-anchor="middle" fill="white" font-size="10" opacity="0.35" font-family="Arial">RU</text>
    <circle cx="320" cy="170" r="20" stroke="white" stroke-width="1" opacity="0.2" stroke-dasharray="3 3"/>
    <text x="320" y="174" text-anchor="middle" fill="white" font-size="10" opacity="0.35" font-family="Arial">DE</text>
    <line x1="100" y1="85" x2="140" y2="100" stroke="white" stroke-width="1" opacity="0.15"/>
    <line x1="300" y1="85" x2="260" y2="100" stroke="white" stroke-width="1" opacity="0.15"/>
    <line x1="100" y1="165" x2="140" y2="140" stroke="white" stroke-width="1" opacity="0.15"/>
    <line x1="300" y1="165" x2="260" y2="140" stroke="white" stroke-width="1" opacity="0.15"/>
    <text x="200" y="230" text-anchor="middle" fill="white" font-size="10" opacity="0.25" font-family="Arial">30+ LANGUAGES</text>
    <rect x="130" y="240" width="140" height="20" rx="4" fill="white" opacity="0.1"/>
    <path d="M160,252 Q170,245 180,252 Q190,258 200,250 Q210,245 220,252 Q230,258 240,250" stroke="white" stroke-width="1" opacity="0.25" fill="none"/>
  </svg>