<svg xmlns="http://www.w3.org/2000/svg" viewBox="0 0 400 300" fill="none"><defs><filter id="glow"><feGaussianBlur stdDeviation="4" result="blur"/><feMerge><feMergeNode in="blur"/><feMergeNode in="SourceGraphic"/></feMerge></filter></defs>
    <rect x="40" y="40" width="180" height="120" rx="8" stroke="white" stroke-width="1" opacity="0.2"/>
    <polyline points="60,140 90,110 120,125 150,80 180,95 200,60" stroke="white" stroke-width="2" opacity="0.5" fill="none" stroke-linecap="round"/>
    <circle cx="60" cy="140" r="3" fill="white" opacity="0.3"/>
    <circle cx="90" cy="110" r="3" fill="white" opacity="0.3"/>
    <circle cx="120" cy="125" r="3" fill="white" opacity="0.3"/>
    <circle cx="150" cy="80" r="3" fill="white" opacity="0.3"/>
    <circle cx="180" cy="95" r="3" fill="white" opacity="0.3"/>
    <circle cx="200" cy="60" r="3" fill="white" opacity="0.3"/>
    <rect x="240" y="40" width="120" height="120" rx="8" stroke="white" stroke-width="1" opacity="0.2"/>
    <rect x="255" y="120" width="20" height="25" rx="3" fill="white" opacity="0.3"/>
    <rect x="285" y="90" width="20" height="55" rx="3" fill="white" opacity="0.25"/>
    <rect x="315" y="70" width="20" height="75" rx="3" fill="white" opacity="0.35"/>
    <rect x="345" y="100" width="20" height="45" rx="3" fill="white" opacity="0.2"/>
    <rect x="40" y="180" width="320" height="80" rx="8" stroke="white" stroke-width="1" opacity="0.15"/>
    <circle cx="80" cy="210" r="15" stroke="white" stroke-width="1.5" opacity="0.3"/>
    <polygon points="76,205 76,218 88,211" fill="white" opacity="0.3"/>
    <rect x="110" y="200" width="120" height="8" rx="2" fill="white" opacity="0.2"/>
    <rect x="110" y="215" width="200" height="6" rx="2" fill="white" opacity="0.1"/>
    <rect x="110" y="228" width="160" height="6" rx="2" fill="white" opacity="0.1"/>
    <rect x="310" y="200" width="35" height="16" rx="4" fill="white" opacity="0.15"/>
    <text x="327" y="212" text-anchor="middle" fill="white" font-size="9" opacity="0.4" font-family="Arial">HD</text>
  </svg>